
<svg width="58px" height="124px" viewBox="0 0 58 124" version="1.1" xmlns="http://www.w3.org/2000/svg" xmlns:xlink="http://www.w3.org/1999/xlink">
    <!-- Generator: Sketch 44.1 (41455) - http://www.bohemiancoding.com/sketch -->
    <desc>Created with Sketch.</desc>
    <defs></defs>
    <g id="Page-1" stroke="none" stroke-width="1" fill="none" fill-rule="evenodd">
        <g id="Desktop-HD-Copy" transform="translate(-328.000000, -705.000000)" fill-rule="nonzero">
            <g id="actioncreators" transform="translate(328.000000, 705.000000)">
                <rect id="Rectangle-path" fill="#E3E6E9" x="0" y="56.1875" width="3.86666667" height="11.625"></rect>
                <rect id="Rectangle-path" fill="#E3E6E9" x="54.1333333" y="56.1875" width="3.86666667" height="11.625"></rect>
                <path d="M44.4666667,34.875 L38.6666667,34.875 L38.6666667,38.75 C38.6666667,39.0176172 38.6531333,39.2818438 38.6267917,39.5424375 C38.5673417,40.1302266 38.4399833,40.6974297 38.2568,41.2387187 C38.222725,41.3392266 38.1869583,41.4387656 38.1490167,41.5375781 C38.0989917,41.6673906 38.0455833,41.7955078 37.9887917,41.9219297 C37.9117,42.0938828 37.8302583,42.2634141 37.741325,42.4283437 C37.7229583,42.46225 37.7033833,42.4951875 37.684775,42.5288516 C37.491925,42.8739688 37.2734583,43.202375 37.0320333,43.512375 C36.9585667,43.6068281 36.882925,43.6993437 36.80535,43.7901641 C36.6758167,43.9415312 36.542175,44.0892656 36.401525,44.2302187 C36.397175,44.2345781 36.3925833,44.2384531 36.388475,44.2428125 C36.2309083,44.3999922 36.0663333,44.5496641 35.8957167,44.6927969 C35.747575,44.8170391 35.5943583,44.9352266 35.4370333,45.0483281 C35.250225,45.1827422 35.0576167,45.3091641 34.858725,45.4268672 C34.7449,45.4941953 34.6291417,45.558375 34.5116917,45.6201328 C34.336725,45.7119219 34.1586167,45.7981406 33.9761583,45.8763672 C33.924925,45.8984063 33.872725,45.91875 33.8207667,45.9395781 C33.0450167,46.2527266 32.2078833,46.4455078 31.3311167,46.4900703 C31.1994083,46.4966094 31.0667333,46.5 30.9333333,46.5 L29,46.5 L27.0666667,46.5 C22.7956917,46.5 19.3333333,43.0301797 19.3333333,38.75 L19.3333333,34.875 L13.5333333,34.875 C6.071875,34.875 0,40.9599609 0,48.4375 L0,52.3125 L3.86666667,52.3125 C3.86666667,50.1722891 5.59796667,48.4375 7.73333333,48.4375 L9.66666667,48.4375 L9.66666667,52.3125 L9.66666667,56.1875 L9.66666667,67.8125 L13.5333333,67.8125 C13.5333333,66.7415469 14.3980167,65.875 15.4666667,65.875 C16.5353167,65.875 17.4,66.7415469 17.4,67.8125 L21.2666667,67.8125 C21.2666667,66.7415469 22.13135,65.875 23.2,65.875 C24.26865,65.875 25.1333333,66.7415469 25.1333333,67.8125 L29,67.8125 L48.3333333,67.8125 L48.3333333,56.1875 L48.3333333,52.3125 L48.3333333,48.4375 L50.2666667,48.4375 C52.4020333,48.4375 54.1333333,50.1722891 54.1333333,52.3125 L58,52.3125 L58,48.4375 C58,40.9599609 51.928125,34.875 44.4666667,34.875 Z M38.6666667,58.125 L34.8,58.125 C33.73135,58.125 32.8666667,57.2584531 32.8666667,56.1875 C32.8666667,55.1165469 33.73135,54.25 34.8,54.25 L38.6666667,54.25 C39.7353167,54.25 40.6,55.1165469 40.6,56.1875 C40.6,57.2584531 39.7353167,58.125 38.6666667,58.125 Z M38.6666667,52.3125 L34.8,52.3125 C33.73135,52.3125 32.8666667,51.4459531 32.8666667,50.375 C32.8666667,49.3040469 33.73135,48.4375 34.8,48.4375 L38.6666667,48.4375 C39.7353167,48.4375 40.6,49.3040469 40.6,50.375 C40.6,51.4459531 39.7353167,52.3125 38.6666667,52.3125 Z" id="Shape" fill="#E3E6E9"></path>
                <path d="M54.1333333,80.2953281 C52.532775,81.7411875 50.5482083,82.7569219 48.3333333,83.1320703 L48.3333333,81.375 L48.3333333,75.5625 L29,75.5625 L25.1333333,75.5625 L25.1333333,77.5 C25.1333333,78.5709531 24.26865,79.4375 23.2,79.4375 C22.13135,79.4375 21.2666667,78.5709531 21.2666667,77.5 L21.2666667,75.5625 L17.4,75.5625 L17.4,77.5 C17.4,78.5709531 16.5353167,79.4375 15.4666667,79.4375 C14.3980167,79.4375 13.5333333,78.5709531 13.5333333,77.5 L13.5333333,75.5625 L9.66666667,75.5625 L9.66666667,81.375 L9.66666667,83.1320703 C7.45179167,82.7569219 5.467225,81.7409453 3.86666667,80.2953281 L3.86666667,71.6875 L0,71.6875 C0,77.5113828 4.29514167,82.347625 9.878125,83.1838984 L13.307375,110.683078 C14.001925,110.524203 14.724025,110.4375 15.4666667,110.4375 L25.1333333,110.4375 C26.2010167,110.4375 27.0666667,111.305016 27.0666667,112.375 L27.0666667,89.125 C27.0666667,88.0559844 27.9332833,87.1875 29,87.1875 C30.0667167,87.1875 30.9333333,88.0559844 30.9333333,89.125 L30.9333333,112.375 C30.9333333,111.305016 31.7989833,110.4375 32.8666667,110.4375 L42.5333333,110.4375 C43.275975,110.4375 43.9978333,110.524203 44.692625,110.683078 L48.121875,83.1838984 C53.7046167,82.3473828 58,77.5113828 58,71.6875 L54.1333333,71.6875 L54.1333333,80.2953281 Z" id="Shape" fill="#E3E6E9"></path>
                <path d="M50.2666667,73.625 C50.2666667,73.6918438 50.2632833,73.7579609 50.2567583,73.8231094 C50.24685,73.9216797 50.227275,74.0173438 50.2028667,74.1110703 C50.1907833,74.1578125 50.1777333,74.2038281 50.1622667,74.248875 C49.9715917,74.8105078 49.531275,75.2551641 48.9732667,75.4515781 C48.7726833,75.5222969 48.5578417,75.5625 48.3333333,75.5625 L48.3333333,81.375 L48.3333333,83.1320703 C50.5482083,82.7569219 52.532775,81.7409453 54.1333333,80.2953281 L54.1333333,71.6875 L50.2666667,71.6875 L50.2666667,73.625 L50.2666667,73.625 Z" id="Shape" fill="#B6B8BE"></path>
                <path d="M50.2666667,48.4375 L48.3333333,48.4375 L48.3333333,52.3125 L54.1333333,52.3125 C54.1333333,50.1722891 52.4020333,48.4375 50.2666667,48.4375 Z" id="Shape" fill="#B6B8BE"></path>
                <rect id="Rectangle-path" fill="#B6B8BE" x="48.3333333" y="56.1875" width="5.8" height="11.625"></rect>
                <path d="M7.73333333,73.625 L7.73333333,71.6875 L3.86666667,71.6875 L3.86666667,80.2953281 C5.467225,81.7411875 7.45179167,82.7569219 9.66666667,83.1320703 L9.66666667,81.375 L9.66666667,75.5625 C8.59898333,75.5625 7.73333333,74.6949844 7.73333333,73.625 Z" id="Shape" fill="#B6B8BE"></path>
                <rect id="Rectangle-path" fill="#B6B8BE" x="3.86666667" y="56.1875" width="5.8" height="11.625"></rect>
                <path d="M9.66666667,48.4375 L7.73333333,48.4375 C5.59796667,48.4375 3.86666667,50.1722891 3.86666667,52.3125 L9.66666667,52.3125 L9.66666667,48.4375 Z" id="Shape" fill="#B6B8BE"></path>
                <path d="M15.4666667,29.0625 L29,29.0625 L29,0 C18.340325,0 9.66666667,8.69235156 9.66666667,19.375 C9.66666667,23.2252969 10.7918667,26.9472344 12.9236083,30.1390234 C13.088425,30.3858125 13.3061667,30.5848906 13.5541167,30.7306875 C13.6851,29.7885781 14.4903333,29.0625 15.4666667,29.0625 Z" id="Shape" fill="#FF9300"></path>
                <path d="M42.5333333,29.0625 C43.51015,29.0625 44.3153833,29.7890625 44.446125,30.7318984 C44.694075,30.5863437 44.9118167,30.38775 45.0766333,30.1409609 C47.2062,26.9508672 48.3333333,23.2272344 48.3333333,19.375 C48.3333333,8.69235156 39.659675,0 29,0 L29,29.0625 L42.5333333,29.0625 Z" id="Shape" fill="#FFCF00"></path>
                <path d="M21.2666667,32.9375 L25.1333333,32.9375 L29,32.9375 L29,31 L29,29.0625 L15.4666667,29.0625 C14.4903333,29.0625 13.6851,29.7885781 13.5541167,30.7309297 C13.5417917,30.8190859 13.5333333,30.9084531 13.5333333,31 L13.5333333,34.875 L19.3333333,34.875 C19.3333333,33.8050156 20.1989833,32.9375 21.2666667,32.9375 Z" id="Shape" fill="#888693"></path>
                <path d="M38.6666667,48.4375 L34.8,48.4375 C33.73135,48.4375 32.8666667,49.3040469 32.8666667,50.375 C32.8666667,51.4459531 33.73135,52.3125 34.8,52.3125 L38.6666667,52.3125 C39.7353167,52.3125 40.6,51.4459531 40.6,50.375 C40.6,49.3040469 39.7353167,48.4375 38.6666667,48.4375 Z" id="Shape" fill="#FF4F19"></path>
                <path d="M38.6666667,54.25 L34.8,54.25 C33.73135,54.25 32.8666667,55.1165469 32.8666667,56.1875 C32.8666667,57.2584531 33.73135,58.125 34.8,58.125 L38.6666667,58.125 C39.7353167,58.125 40.6,57.2584531 40.6,56.1875 C40.6,55.1165469 39.7353167,54.25 38.6666667,54.25 Z" id="Shape" fill="#FF4F19"></path>
                <path d="M42.5333333,29.0625 L29,29.0625 L29,31 L29,32.9375 L32.8666667,32.9375 L36.7333333,32.9375 C37.8010167,32.9375 38.6666667,33.8050156 38.6666667,34.875 L44.4666667,34.875 L44.4666667,31 C44.4666667,30.9086953 44.4582083,30.8198125 44.446125,30.7318984 C44.3153833,29.7890625 43.51015,29.0625 42.5333333,29.0625 Z" id="Shape" fill="#B6B8BE"></path>
                <path d="M25.1333333,36.8125 L25.1333333,32.9375 L21.2666667,32.9375 C20.1989833,32.9375 19.3333333,33.8050156 19.3333333,34.875 L19.3333333,38.75 C19.3333333,43.0301797 22.7956917,46.5 27.0666667,46.5 L29,46.5 L29,40.6875 C26.8643917,40.6875 25.1333333,38.9524688 25.1333333,36.8125 Z" id="Shape" fill="#5C546A"></path>
                <path d="M38.6741679,38.75 C38.6741679,39.0176172 38.6580887,39.2818438 38.6267917,39.5424375 C38.6580887,39.2818438 38.6741679,39.017375 38.6741679,38.75 Z" id="Shape" fill="#5C546A"></path>
                <path d="M34.0056321,45.876125 C33.9447608,45.9022454 33.882741,45.9263565 33.8210083,45.9510417 C33.8824539,45.9263565 33.9444737,45.9022454 34.0056321,45.876125 Z" id="Shape" fill="#5C546A"></path>
                <path d="M35.8957167,44.6925547 C35.747575,44.8167969 35.5943583,44.9349844 35.4370333,45.0480859 C35.5943583,44.9349844 35.747575,44.8170391 35.8957167,44.6925547 Z" id="Shape" fill="#5C546A"></path>
                <path d="M38.6267917,39.5424375 C38.5673417,40.1302266 38.4399833,40.6974297 38.2568,41.2387188 C38.4399833,40.6974297 38.5671,40.1299844 38.6267917,39.5424375 Z" id="Shape" fill="#5C546A"></path>
                <path d="M34.8589667,45.426625 C34.7451417,45.5064213 34.6293833,45.5824861 34.5119333,45.6556806 C34.6293833,45.5824861 34.7451417,45.5064213 34.8589667,45.426625 Z" id="Shape" fill="#5C546A"></path>
                <path d="M37.0746767,43.512375 C36.9873896,43.6099726 36.8975183,43.7055682 36.80535,43.799412 C36.8975183,43.7055682 36.9873896,43.6097223 37.0746767,43.512375 Z" id="Shape" fill="#5C546A"></path>
                <path d="M38.179158,41.5375781 C38.1197224,41.6673906 38.0562669,41.7955078 37.9887917,41.9219297 C38.0562669,41.7955078 38.1197224,41.6673906 38.179158,41.5375781 Z" id="Shape" fill="#5C546A"></path>
                <path d="M37.7519631,42.4283438 C37.7301413,42.4685289 37.7068839,42.507566 37.684775,42.5474641 C37.7068839,42.507566 37.7304285,42.4682419 37.7519631,42.4283438 Z" id="Shape" fill="#5C546A"></path>
                <path d="M36.40398,44.2299766 C36.3988116,44.2351432 36.3933562,44.2397358 36.388475,44.2449025 C36.3936433,44.2397358 36.3990988,44.2351432 36.40398,44.2299766 Z" id="Shape" fill="#5C546A"></path>
                <path d="M36.7333333,32.9375 L32.8666667,32.9375 L32.8666667,36.8125 C32.8666667,38.9527109 31.1356083,40.6875 29,40.6875 L29,46.5 L30.9333333,46.5 C31.0667333,46.5 31.1994083,46.4966094 31.3313583,46.4898281 C32.208125,46.4452656 33.0452583,46.2524844 33.8210083,45.9393359 C33.8729667,45.9185078 33.9251667,45.8981641 33.9764,45.876125 C34.1588583,45.7976563 34.3372083,45.7114375 34.5119333,45.6198906 C34.6293833,45.558375 34.7451417,45.4941953 34.8589667,45.426625 C35.0576167,45.3089219 35.2504667,45.1825 35.437275,45.0480859 C35.5943583,44.9349844 35.7478167,44.8170391 35.8959583,44.6925547 C36.0663333,44.5494219 36.23115,44.39975 36.3887167,44.2425703 C36.3930667,44.2382109 36.3976583,44.2343359 36.4017667,44.2299766 C36.5424167,44.0890234 36.6760583,43.9412891 36.8055917,43.7899219 C36.8831667,43.6991016 36.9588083,43.6065859 37.032275,43.5121328 C37.2737,43.2021328 37.4921667,42.8737266 37.6850167,42.5286094 C37.7038667,42.4949453 37.7234417,42.4620078 37.7415667,42.4281016 C37.8305,42.2631719 37.9119417,42.0936406 37.9890333,41.9216875 C38.0455833,41.7952656 38.0992333,41.6671484 38.1492583,41.5373359 C38.1872,41.4387656 38.2229667,41.3389844 38.2570417,41.2384766 C38.440225,40.6971875 38.5673417,40.1297422 38.6270333,39.5421953 C38.653375,39.2816016 38.6669083,39.017375 38.6669083,38.7497578 L38.6669083,34.8747578 C38.6666667,33.8047734 37.8010167,32.9375 36.7333333,32.9375 Z" id="Shape" fill="#888693"></path>
                <path d="M29,40.6875 C31.1356083,40.6875 32.8666667,38.9527109 32.8666667,36.8125 L32.8666667,32.9375 L29,32.9375 L29,34.875 L29,40.6875 Z" id="Shape" fill="#FF4F19"></path>
                <path d="M25.1333333,36.8125 C25.1333333,38.9527109 26.8643917,40.6875 29,40.6875 L29,34.875 L29,32.9375 L25.1333333,32.9375 L25.1333333,36.8125 Z" id="Shape" fill="#E5001E"></path>
                <rect id="Rectangle-path" fill="#E5001E" x="48.3333333" y="52.3125" width="5.8" height="3.875"></rect>
                <rect id="Rectangle-path" fill="#E5001E" x="3.86666667" y="52.3125" width="5.8" height="3.875"></rect>
                <rect id="Rectangle-path" fill="#FF4F19" x="54.1333333" y="52.3125" width="3.86666667" height="3.875"></rect>
                <rect id="Rectangle-path" fill="#FF4F19" x="0" y="52.3125" width="3.86666667" height="3.875"></rect>
                <path d="M3.86666667,71.6875 L7.73333333,71.6875 L7.73333333,73.625 C7.73333333,74.6949844 8.59898333,75.5625 9.66666667,75.5625 L13.5333333,75.5625 L13.5333333,67.8125 L9.66666667,67.8125 L3.86666667,67.8125 L3.86666667,71.6875 Z" id="Shape" fill="#5C546A"></path>
                <rect id="Rectangle-path" fill="#888693" x="0" y="67.8125" width="3.86666667" height="3.875"></rect>
                <path d="M50.2666667,69.75 L50.2666667,71.6875 L54.1333333,71.6875 L54.1333333,67.8125 L48.3333333,67.8125 C49.4010167,67.8125 50.2666667,68.6797734 50.2666667,69.75 Z" id="Shape" fill="#5C546A"></path>
                <rect id="Rectangle-path" fill="#888693" x="54.1333333" y="67.8125" width="3.86666667" height="3.875"></rect>
                <rect id="Rectangle-path" fill="#5C546A" x="17.4" y="67.8125" width="3.86666667" height="7.75"></rect>
                <rect id="Rectangle-path" fill="#5C546A" x="25.1333333" y="67.8125" width="3.86666667" height="7.75"></rect>
                <path d="M50.1622667,74.248875 C49.9715917,74.8105078 49.531275,75.2551641 48.9732667,75.4515781 C49.531275,75.2551641 49.9715917,74.8105078 50.1622667,74.248875 Z" id="Shape" fill="#5C546A"></path>
                <path d="M50.2028667,74.1108281 C50.2315795,74.0171016 50.254837,73.9216797 50.2668964,73.8228672 C50.254837,73.9216797 50.2315795,74.0171016 50.2028667,74.1108281 Z" id="Shape" fill="#5C546A"></path>
                <path d="M48.3333333,75.5625 C48.5580833,75.5625 48.7726833,75.5220547 48.9732667,75.4515781 C49.531275,75.2551641 49.9715917,74.8105078 50.1622667,74.248875 C50.1777333,74.2035859 50.1907833,74.1575703 50.2028667,74.1110703 C50.2270333,74.0173438 50.2466083,73.9219219 50.2567583,73.8231094 C50.2632833,73.7579609 50.2666667,73.6918438 50.2666667,73.625 L50.2666667,71.6875 L50.2666667,69.75 C50.2666667,68.6800156 49.4010167,67.8125 48.3333333,67.8125 L29,67.8125 L29,75.5625 L48.3333333,75.5625 L48.3333333,75.5625 Z" id="Shape" fill="#888693"></path>
                <path d="M13.5333333,77.5 C13.5333333,78.5709531 14.3980167,79.4375 15.4666667,79.4375 C16.5353167,79.4375 17.4,78.5709531 17.4,77.5 L17.4,75.5625 L17.4,67.8125 C17.4,66.7415469 16.5353167,65.875 15.4666667,65.875 C14.3980167,65.875 13.5333333,66.7415469 13.5333333,67.8125 L13.5333333,75.5625 L13.5333333,77.5 Z" id="Shape" fill="#FF9300"></path>
                <path d="M21.2666667,77.5 C21.2666667,78.5709531 22.13135,79.4375 23.2,79.4375 C24.26865,79.4375 25.1333333,78.5709531 25.1333333,77.5 L25.1333333,75.5625 L25.1333333,67.8125 C25.1333333,66.7415469 24.26865,65.875 23.2,65.875 C22.13135,65.875 21.2666667,66.7415469 21.2666667,67.8125 L21.2666667,75.5625 L21.2666667,77.5 Z" id="Shape" fill="#E5001E"></path>
                <path d="M5.9044,122.686375 C6.095075,123.248008 6.53539167,123.692664 7.0934,123.889078 C6.53539167,123.692664 6.095075,123.248008 5.9044,122.686375 Z" id="Shape" fill="#888693"></path>
                <path d="M27.0668964,122.260609 C27.0551241,122.35918 27.0318667,122.454844 27.0028667,122.54857 C27.0315795,122.454602 27.054837,122.35918 27.0668964,122.260609 Z" id="Shape" fill="#888693"></path>
                <path d="M5.87393804,122.548328 C5.84522517,122.454602 5.82196774,122.35918 5.80990833,122.260367 C5.82196774,122.35918 5.84522517,122.454602 5.87393804,122.548328 Z" id="Shape" fill="#888693"></path>
                <path d="M25.7732667,123.889078 C26.331275,123.692664 26.7715917,123.248008 26.9622667,122.686375 C26.7715917,123.248008 26.331275,123.692664 25.7732667,123.889078 Z" id="Shape" fill="#888693"></path>
                <path d="M25.1333333,110.4375 L15.4666667,110.4375 C14.724025,110.4375 14.0021667,110.524203 13.307375,110.683078 C9.00860833,111.666359 5.8,115.518836 5.8,120.125 C5.8,119.461406 5.86790833,118.813555 5.99478333,118.1875 L27.0666667,118.1875 L27.0666667,112.375 C27.0666667,111.304773 26.2010167,110.4375 25.1333333,110.4375 Z" id="Shape" fill="#888693"></path>
                <path d="M31.0072714,122.548328 C30.9785585,122.454602 30.9553011,122.35918 30.9432417,122.260367 C30.9553011,122.35918 30.9785585,122.454602 31.0072714,122.548328 Z" id="Shape" fill="#888693"></path>
                <path d="M50.9066,123.889078 C51.4646083,123.692664 51.904925,123.248008 52.0956,122.686375 C51.904925,123.248008 51.4646083,123.692664 50.9066,123.889078 Z" id="Shape" fill="#888693"></path>
                <path d="M52.199988,122.260609 C52.1882158,122.35918 52.1649583,122.454844 52.1359583,122.54857 C52.1649583,122.454602 52.1882158,122.35918 52.199988,122.260609 Z" id="Shape" fill="#888693"></path>
                <path d="M31.0377333,122.686375 C31.2284083,123.248008 31.668725,123.692664 32.2267333,123.889078 C31.668725,123.692664 31.2284083,123.248008 31.0377333,122.686375 Z" id="Shape" fill="#888693"></path>
                <path d="M32.8666667,110.4375 C31.7989833,110.4375 30.9333333,111.305016 30.9333333,112.375 L30.9333333,118.1875 L52.0052167,118.1875 C52.1320917,118.813555 52.2,119.461406 52.2,120.125 C52.2,115.519078 48.9913917,111.666602 44.692625,110.683078 C43.9978333,110.524203 43.275975,110.4375 42.5333333,110.4375 L32.8666667,110.4375 Z" id="Shape" fill="#888693"></path>
                <path d="M5.8,120.125 L5.8,122.0625 C5.8,122.129344 5.80338333,122.195461 5.80990833,122.260609 C5.81981667,122.35918 5.83939167,122.454844 5.8638,122.54857 C5.87588333,122.595312 5.88893333,122.641328 5.9044,122.686375 C6.095075,123.248008 6.53539167,123.692664 7.0934,123.889078 C7.29398333,123.959797 7.508825,124 7.73333333,124 L25.1333333,124 C25.3580833,124 25.5726833,123.959555 25.7732667,123.889078 C26.331275,123.692664 26.7715917,123.248008 26.9622667,122.686375 C26.9777333,122.641086 26.9907833,122.59507 27.0028667,122.54857 C27.0270333,122.454844 27.0466083,122.359422 27.0567583,122.260609 C27.0632833,122.195461 27.0666667,122.129344 27.0666667,122.0625 L27.0666667,118.1875 L5.99478333,118.1875 C5.86790833,118.813555 5.8,119.461406 5.8,120.125 Z" id="Shape" fill="#B6B8BE"></path>
                <path d="M30.9333333,118.1875 L30.9333333,122.0625 C30.9333333,122.129344 30.9367167,122.195461 30.9432417,122.260609 C30.95315,122.35918 30.972725,122.454844 30.9971333,122.54857 C31.0092167,122.595312 31.0222667,122.641328 31.0377333,122.686375 C31.2284083,123.248008 31.668725,123.692664 32.2267333,123.889078 C32.4273167,123.959797 32.6421583,124 32.8666667,124 L50.2666667,124 C50.4914167,124 50.7060167,123.959555 50.9066,123.889078 C51.4646083,123.692664 51.904925,123.248008 52.0956,122.686375 C52.1110667,122.641086 52.1241167,122.59507 52.1362,122.54857 C52.1603667,122.454844 52.1799417,122.359422 52.1900917,122.260609 C52.1966167,122.195461 52.2,122.129344 52.2,122.0625 L52.2,120.125 C52.2,119.461406 52.1320917,118.813555 52.0052167,118.1875 L30.9333333,118.1875 L30.9333333,118.1875 Z" id="Shape" fill="#B6B8BE"></path>
            </g>
        </g>
    </g>
</svg>