
<svg width="114px" height="172px" viewBox="0 0 114 172" version="1.1" xmlns="http://www.w3.org/2000/svg" xmlns:xlink="http://www.w3.org/1999/xlink">
    <!-- Generator: Sketch 44.1 (41455) - http://www.bohemiancoding.com/sketch -->
    <desc>Created with Sketch.</desc>
    <defs></defs>
    <g id="Page-1" stroke="none" stroke-width="1" fill="none" fill-rule="evenodd">
        <g id="Desktop-HD" transform="translate(-1124.000000, -512.000000)">
            <g id="001-technology" transform="translate(1124.000000, 512.000000)">
                <path d="M91.3026316,87.4955088 L23.4707895,19.4670526 L74.3825,19.4670526 L72.4153947,30.3690877 L82.9197368,40.9008421 L91.3056579,38.752 L91.3056579,87.4955088 L91.3026316,87.4955088 Z M38.0818421,25.5372281 L85.25,72.8421053 L85.25,46.5673509 L81.0736842,47.6387368 L65.8936842,32.4147368 L67.1344737,25.5372281 L38.0818421,25.5372281 Z" id="Shape" fill="#8697CB" fill-rule="nonzero"></path>
                <ellipse id="Oval" stroke="#556080" stroke-width="2" fill="#8697CB" fill-rule="nonzero" stroke-linecap="round" cx="30.6371053" cy="80.168807" rx="15.1315789" ry="15.1754386"></ellipse>
                <path d="M30.7763158,95.3442456 L30.7763158,122.660035" id="Shape" stroke="#556080" stroke-width="2" stroke-linecap="round"></path>
                <path d="M12.6184211,0 L10.4788158,2.14580702 C1.52092105,11.1327018 -0.291842105,43.2014386 17.3909211,71.0635439 L19.4155263,74.250386 L22.0817105,71.5825439 C24.3726316,69.2910526 27.4110526,68.0314912 30.6371053,68.0314912 C37.3131579,68.0314912 42.7423684,73.4764386 42.7423684,80.1718421 C42.7423684,83.5984561 41.3139474,86.7822632 38.7234211,89.1374912 L35.9271053,91.6748246 L39.0018421,93.8631228 C59.4597368,108.419404 80.5501316,109.991579 88.6667105,109.991579 C88.6697368,109.991579 88.6697368,109.991579 88.6697368,109.991579 C99.1710526,109.991579 107.526711,107.651526 111.600132,103.566298 L113.739737,101.420491 L12.6184211,0 Z" id="Shape" fill="#556080" fill-rule="nonzero"></path>
                <polygon id="Shape" fill="#F0C419" fill-rule="nonzero" points="103.395789 22.8086842 99.1135526 39.9751404 81.9967105 44.2697895 69.1560526 31.3919123 73.4352632 14.2224211 90.5551316 9.93080702"></polygon>
                <path d="M21.77,128.432772 L18.6710526,134.800386 L42.8815789,134.800386 L39.6676316,128.350825 C35.9725,120.930035 25.3985526,120.978596 21.77,128.432772 Z" id="Shape" fill="#ECF0F1" fill-rule="nonzero"></path>
                <rect id="Rectangle-path" fill="#A5A5A4" fill-rule="nonzero" x="0.513157895" y="159.081088" width="60.5263158" height="12.1403509"></rect>
                <rect id="Rectangle-path" fill="#D1D4D1" fill-rule="nonzero" x="9.59210526" y="134.800386" width="42.3684211" height="24.2807018"></rect>
            </g>
        </g>
    </g>
</svg>