
<svg width="128px" height="145px" viewBox="0 0 128 145" version="1.1" xmlns="http://www.w3.org/2000/svg" xmlns:xlink="http://www.w3.org/1999/xlink">
    <!-- Generator: Sketch 44.1 (41455) - http://www.bohemiancoding.com/sketch -->
    <desc>Created with Sketch.</desc>
    <defs></defs>
    <g id="Page-1" stroke="none" stroke-width="1" fill="none" fill-rule="evenodd">
        <g id="Desktop-HD" transform="translate(-56.000000, -267.000000)" fill-rule="nonzero">
            <g id="013-robot" transform="translate(56.000000, 267.000000)">
                <path d="M13.7579187,44.2735072 C8.74926829,44.2735072 4.65118699,48.3814928 4.65118699,53.4022482 L4.65118699,135.559353 C1.91895935,135.559353 0.0978211382,137.384892 0.0978211382,140.123723 C0.0978211382,142.862554 1.91895935,144.688094 4.65118699,144.688094 L18.3112846,144.688094 C21.0435122,144.688094 22.8646504,142.862554 22.8646504,140.123723 C22.8646504,137.384892 21.0435122,135.559353 18.3112846,135.559353 L22.8646504,44.2735072 C22.8646504,44.2735072 13.7579187,44.2735072 13.7579187,44.2735072 Z M123.037138,135.559353 L123.037138,53.4022482 C123.037138,48.3814928 118.939057,44.2735072 113.930407,44.2735072 L104.823675,44.2735072 L109.377561,135.559353 C106.645333,135.559353 104.824195,137.384892 104.824195,140.123723 C104.824195,142.862554 106.645333,144.688094 109.377561,144.688094 L123.037659,144.688094 C125.769886,144.688094 127.591024,142.862554 127.591024,140.123723 C127.591024,137.384892 125.768846,135.559353 123.037138,135.559353 Z" id="Shape" fill="#E4E7E7"></path>
                <path d="M22.8641301,140.123723 C22.8641301,137.384892 21.0429919,135.559353 18.3107642,135.559353 L22.8641301,44.2735072 L13.7579187,44.2735072 L13.7579187,135.559353 L18.3112846,144.688094 C21.0429919,144.688094 22.8641301,142.862554 22.8641301,140.123723 Z M113.930407,44.2735072 L104.823675,44.2735072 L109.377561,135.559353 C106.645333,135.559353 104.824195,137.384892 104.824195,140.123723 C104.824195,142.862554 106.645333,144.688094 109.377561,144.688094 L113.930927,135.559353 L113.930927,44.2735072 L113.930407,44.2735072 Z" id="Shape" fill="#C8CBCB"></path>
                <polygon id="Shape" fill="#324D5B" points="31.9708618 126.431133 95.7169431 126.431133 86.6102114 135.559353 41.0775935 135.559353"></polygon>
                <path d="M63.8444228,0 C88.8876748,0 108.921756,20.0830216 108.921756,45.186277 L108.921756,126.886996 L18.7665691,126.886996 L18.7665691,45.186277 C18.7665691,20.0830216 38.8006504,0 63.8444228,0 Z" id="Shape" fill="#E4E7E7"></path>
                <path d="M63.8444228,12.3234353 C68.8530732,12.3234353 72.9511545,16.4314209 72.9511545,21.4521763 C72.9511545,26.4729317 68.8530732,30.5809173 63.8444228,30.5809173 C58.8357724,30.5809173 54.7376911,26.4729317 54.7376911,21.4521763 C54.7376911,16.4314209 58.835252,12.3234353 63.8444228,12.3234353 Z" id="Shape" fill="#324D5B"></path>
                <path d="M18.7665691,44.2735072 L18.7665691,53.4022482 L108.921756,53.4022482 L108.921756,44.2735072 L18.7665691,44.2735072 Z M41.0775935,76.2235791 L86.6107317,76.2235791 L86.6107317,67.0948381 L41.0775935,67.0948381 L41.0775935,76.2235791 Z M41.0775935,94.4810612 L86.6107317,94.4810612 L86.6107317,85.3523201 L41.0775935,85.3523201 L41.0775935,94.4810612 Z M41.0775935,112.738022 L86.6107317,112.738022 L86.6107317,103.609281 L41.0775935,103.609281 L41.0775935,112.738022 Z" id="Shape" fill="#2494BC"></path>
            </g>
        </g>
    </g>
</svg>