<svg width="223px" height="213px" viewBox="0 0 223 213" version="1.1" xmlns="http://www.w3.org/2000/svg" xmlns:xlink="http://www.w3.org/1999/xlink">
    <!-- Generator: Sketch 44.1 (41455) - http://www.bohemiancoding.com/sketch -->
    <desc>Created with Sketch.</desc>
    <defs></defs>
    <g id="Page-1" stroke="none" stroke-width="1" fill="none" fill-rule="evenodd">
        <g id="Desktop-HD" transform="translate(-720.000000, -89.000000)" fill-rule="nonzero">
            <g id="moon" transform="translate(720.000000, 89.000000)">
                <path d="M119.903848,0.299975 C120.402346,0.339975 120.898521,0.390475 121.39516,0.437475 C120.898521,0.390475 120.402346,0.339975 119.903848,0.299975 Z" id="Shape" fill="#FFEDB9"></path>
                <path d="M114.324667,0.03416875 C114.680073,0.04366875 115.033156,0.06316875 115.387633,0.07616875 C115.033156,0.06316875 114.680073,0.04366875 114.324667,0.03416875 Z" id="Shape" fill="#FFEDB9"></path>
                <path d="M117.126104,0.13445625 C117.570246,0.15845625 118.012065,0.19245625 118.454812,0.22195625 C118.012065,0.19295625 117.57071,0.15845625 117.126104,0.13445625 Z" id="Shape" fill="#FFEDB9"></path>
                <path d="M0.0719515258,110.038463 C0.0604350939,109.742481 0.0436839202,109.446944 0.0353083333,109.150519 C0.0436839202,109.447388 0.0604350939,109.742038 0.0719515258,110.038463 Z" id="Shape" fill="#FFEDB9"></path>
                <path d="M0.684324707,118.161306 C0.63459466,117.775688 0.584341138,117.390069 0.539845833,117.003563 C0.584341138,117.390512 0.635118134,117.775688 0.684324707,118.161306 Z" id="Shape" fill="#FFEDB9"></path>
                <path d="M141.029381,3.78296875 C158.942321,8.479175 175.050819,17.3413063 188.155321,29.2014125 C183.73574,28.6924313 179.246471,28.4 174.683333,28.4 C169.522277,28.4 164.445775,28.742575 159.471481,29.3908938 C159.680079,29.651375 159.88496,29.9171813 160.08055,30.1936375 C164.31755,36.1722813 163.806044,43.570925 158.937675,46.7188875 C154.069306,49.86685 146.687542,47.571775 142.450542,41.5931313 C140.683731,39.1001438 139.745737,36.3613188 139.601717,33.7857938 C131.160237,36.456725 123.167546,40.0653 115.755119,44.4819438 C117.744,46.8959438 118.933333,49.9391813 118.933333,53.25 C118.933333,61.0923938 112.277248,67.45 104.066667,67.45 C99.5904062,67.45 95.5796583,65.55785 92.8539479,62.5683063 C74.4420458,81.5621375 63.1833333,106.973481 63.1833333,134.9 C63.1833333,165.347463 76.5819167,192.788963 98.0280125,212.198588 C61.8300021,208.031331 30.9686604,187.310869 13.9997542,158.190663 C33.0360562,190.879506 69.5606687,213 111.5,213 C173.079592,213 223,165.318175 223,106.5 C223,57.4469875 188.276577,16.147175 141.029381,3.78296875 Z M86.5611667,82.6795 C87.9730354,81.3655563 90.4265,81.3655563 91.8383687,82.6795 C92.5064396,83.354 92.9162021,84.2761125 92.9162021,85.2 C92.9162021,86.1221125 92.505975,87.046 91.8383687,87.7205 C91.1308083,88.3586125 90.1649396,88.75 89.1995354,88.75 C88.2341312,88.75 87.2650104,88.3581688 86.5607021,87.7205 C85.8893792,87.046 85.4828687,86.1221125 85.4828687,85.2 C85.4833333,84.2415 85.8898437,83.354 86.5611667,82.6795 Z M84.4055,172.920056 C83.6979396,173.558169 82.7320708,173.949556 81.7666667,173.949556 C80.8012625,173.949556 79.8321417,173.557725 79.1278333,172.920056 C78.4565104,172.245556 78.05,171.321669 78.05,170.399556 C78.05,169.475669 78.4565104,168.553556 79.1278333,167.879056 C80.5397021,166.565113 82.9931667,166.565113 84.4050354,167.879056 C85.0731062,168.553556 85.4828687,169.475669 85.4828687,170.399556 C85.4833333,171.322113 85.0731062,172.246 84.4055,172.920056 Z M85.4833333,133.125 C85.4833333,122.341875 94.6351604,113.6 105.925,113.6 C117.214375,113.6 126.366667,122.341431 126.366667,133.125 C126.366667,143.908569 117.21484,152.65 105.925,152.65 C94.6351604,152.65 85.4833333,143.908569 85.4833333,133.125 Z M124.637023,194.766756 C115.505173,197.102213 106.590283,193.601469 104.724517,186.946994 C102.85875,180.292519 108.749202,173.004813 117.881052,170.668913 C127.012902,168.333456 135.927792,171.8342 137.793558,178.488675 C139.659325,185.14315 133.768873,192.430856 124.637023,194.766756 Z M151.3055,130.3205 C150.59794,130.958613 149.632071,131.35 148.666667,131.35 C147.701262,131.35 146.732142,130.958169 146.027833,130.3205 C145.35651,129.646 144.95,128.722113 144.95,127.8 C144.95,126.876113 145.35651,125.954 146.027833,125.2795 C147.439702,123.965556 149.893167,123.965556 151.305035,125.2795 C151.973106,125.954 152.382869,126.876113 152.382869,127.8 C152.383333,128.722113 151.973106,129.646 151.3055,130.3205 Z M144.95,95.85 C138.791948,95.85 133.8,91.0819063 133.8,85.2 C133.8,79.3180938 138.791948,74.55 144.95,74.55 C151.108052,74.55 156.1,79.3180938 156.1,85.2 C156.1,91.0819063 151.108052,95.85 144.95,95.85 Z M175.797404,64.9295 C177.096844,63.6501688 179.6265,63.6155563 181.038369,64.9295 C181.70644,65.604 182.116202,66.5261125 182.116202,67.45 C182.116202,68.3721125 181.705975,69.296 181.038369,69.9705 C180.330808,70.6086125 179.36494,71 178.399535,71 C177.394177,71 176.46501,70.6081688 175.760702,69.9705 C175.089379,69.296 174.682869,68.3721125 174.682869,67.45 C174.683333,66.4915 175.089844,65.604 175.797404,64.9295 Z M178.3331,156.454269 C174.154637,160.445356 168.22609,161.254313 165.092475,158.260775 C161.958396,155.267238 162.805331,149.604988 166.983794,145.6139 C171.162721,141.622813 177.090804,140.813856 180.224419,143.80695 C183.358033,146.800044 182.511562,152.462738 178.3331,156.454269 Z M180.392598,118.763475 C174.676365,117.86355 171.061442,111.232594 172.317675,103.952875 C173.573908,96.6731563 179.226494,91.5016938 184.942262,92.4016188 C190.658031,93.3015438 194.273419,99.9325 193.017185,107.212219 C191.760952,114.491938 186.108367,119.6634 180.392598,118.763475 Z" id="Shape" fill="#FFEDB9"></path>
                <path d="M0.210338468,112.840744 C0.185735182,112.48885 0.157467576,112.138288 0.137052083,111.785506 C0.157467576,112.138288 0.186258656,112.48885 0.210338468,112.840744 Z" id="Shape" fill="#FFEDB9"></path>
                <path d="M138.511804,3.15373125 C139.317856,3.34543125 140.120192,3.5455625 140.919275,3.754125 C140.120192,3.54600625 139.317856,3.34543125 138.511804,3.15373125 Z" id="Shape" fill="#FFEDB9"></path>
                <path d="M133.35911,2.0519 C134.074104,2.2049 134.785846,2.3674 135.495729,2.5354 C134.785381,2.3674 134.07364,2.2044 133.35911,2.0519 Z" id="Shape" fill="#FFEDB9"></path>
                <path d="M122.654181,0.52895 C123.198673,0.58745 123.740377,0.65595 124.28301,0.72245 C123.740842,0.65595 123.199138,0.58745 122.654181,0.52895 Z" id="Shape" fill="#FFEDB9"></path>
                <path d="M0.414578462,115.525875 C0.377411796,115.151794 0.338151232,114.7786 0.305695833,114.403631 C0.338151232,114.7786 0.37793527,115.152238 0.414578462,115.525875 Z" id="Shape" fill="#FFEDB9"></path>
                <path d="M135.953344,2.57596875 C136.712008,2.73838125 137.467421,2.90878125 138.220046,3.0858375 C137.467421,2.909225 136.712473,2.73838125 135.953344,2.57596875 Z" id="Shape" fill="#FFEDB9"></path>
                <path d="M125.377104,0.82049375 C125.964802,0.89899375 126.549248,0.98749375 127.134158,1.07599375 C126.549248,0.98749375 125.964802,0.89899375 125.377104,0.82049375 Z" id="Shape" fill="#FFEDB9"></path>
                <path d="M128.0689,1.1723875 C128.69841,1.2733875 129.324669,1.3838875 129.950462,1.4963875 C129.324669,1.3838875 128.69841,1.2733875 128.0689,1.1723875 Z" id="Shape" fill="#FFEDB9"></path>
                <path d="M130.730963,1.5833 C131.40275,1.7093 132.071285,1.8443 132.738892,1.9833 C132.071285,1.8448 131.40275,1.7093 130.730963,1.5833 Z" id="Shape" fill="#FFEDB9"></path>
                <path d="M1.878474,125.891875 C1.79105381,125.489394 1.70729795,125.085581 1.6251125,124.681325 C1.70729795,125.085581 1.79105381,125.48895 1.878474,125.891875 Z" id="Shape" fill="#FFEDB9"></path>
                <path d="M1.01870692,120.765231 C0.956413498,120.372069 0.895167019,119.978906 0.838108333,119.584856 C0.895690493,119.978906 0.956936972,120.372069 1.01870692,120.765231 Z" id="Shape" fill="#FFEDB9"></path>
                <path d="M6.55434167,142.545369 C5.83191458,140.627481 5.16848958,138.682969 4.55988542,136.716269 C5.16848958,138.683413 5.83237917,140.627481 6.55434167,142.545369 Z" id="Shape" fill="#FFEDB9"></path>
                <path d="M8.29931667,146.872375 C8.05819792,146.311031 7.81847292,145.748356 7.58711042,145.182131 C7.81847292,145.7488 8.05819792,146.311031 8.29931667,146.872375 Z" id="Shape" fill="#FFEDB9"></path>
                <path d="M9.30606875,149.141713 C9.0510125,148.58525 8.79827917,148.027013 8.55297917,147.465669 C8.79827917,148.027013 9.0510125,148.584806 9.30606875,149.141713 Z" id="Shape" fill="#FFEDB9"></path>
                <path d="M7.36550417,144.625225 C7.130425,144.040363 6.89673958,143.454613 6.67234583,142.864869 C6.89673958,143.454613 7.13088958,144.039919 7.36550417,144.625225 Z" id="Shape" fill="#FFEDB9"></path>
                <path d="M2.4021772,128.419475 C2.30167016,128.011669 2.20587438,127.602531 2.11060208,127.19295 C2.20587438,127.602531 2.30114668,128.011669 2.4021772,128.419475 Z" id="Shape" fill="#FFEDB9"></path>
                <path d="M3.63409516,133.403231 C3.50375009,132.979006 3.3817806,132.552119 3.25719375,132.125675 C3.3817806,132.552119 3.50375009,132.979006 3.63409516,133.403231 Z" id="Shape" fill="#FFEDB9"></path>
                <path d="M2.9868586,130.921781 C2.87221775,130.50865 2.76490555,130.0933 2.65602292,129.678394 C2.76490555,130.0933 2.87274123,130.50865 2.9868586,130.921781 Z" id="Shape" fill="#FFEDB9"></path>
                <path d="M1.41720164,123.3412 C1.34234484,122.942713 1.2701054,122.542894 1.20048333,122.143075 C1.2701054,122.543338 1.34234484,122.942269 1.41720164,123.3412 Z" id="Shape" fill="#FFEDB9"></path>
                <path d="M4.3429708,135.859831 C4.19116329,135.4112 4.04982526,134.958575 3.90482292,134.507725 C4.04930179,134.959019 4.19116329,135.4112 4.3429708,135.859831 Z" id="Shape" fill="#FFEDB9"></path>
                <path d="M11.4965792,153.635569 C11.2011042,153.064906 10.910275,152.491138 10.6250208,151.914706 C10.9098104,152.491581 11.2011042,153.064906 11.4965792,153.635569 Z" id="Shape" fill="#FFEDB9"></path>
                <path d="M13.9063729,158.031356 C13.5481792,157.4141 13.1974188,156.79285 12.8522333,156.168494 C13.1974188,156.79285 13.5486438,157.4141 13.9063729,158.031356 Z" id="Shape" fill="#FFEDB9"></path>
                <path d="M12.6752271,155.848106 C12.3518771,155.25925 12.0350313,154.6664 11.7228313,154.071331 C12.0350313,154.666844 12.3523417,155.25925 12.6752271,155.848106 Z" id="Shape" fill="#FFEDB9"></path>
                <path d="M10.3727521,151.398625 C10.0995771,150.838169 9.83011875,150.275938 9.5667,149.7106 C9.82965417,150.276381 10.0995771,150.838169 10.3727521,151.398625 Z" id="Shape" fill="#FFEDB9"></path>
                <path d="M98.0280125,212.198588 C76.5819167,192.788963 63.1833333,165.347463 63.1833333,134.9 C63.1833333,106.973481 74.4420458,81.5625813 92.8539479,62.56875 C95.5796583,65.55785 99.5904062,67.45 104.066667,67.45 C112.277248,67.45 118.933333,61.0923938 118.933333,53.25 C118.933333,49.9391813 117.744,46.8959438 115.755119,44.4810563 C123.167081,40.0644125 131.159773,36.4558375 139.601717,33.7849063 C139.745737,36.3604313 140.683731,39.0997 142.450542,41.5922438 C146.687542,47.5708875 154.069306,49.8659625 158.937675,46.718 C163.806044,43.5700375 164.318015,36.1718375 160.08055,30.19275 C159.884496,29.9162938 159.680079,29.6504875 159.471481,29.3900063 C164.445775,28.742575 169.522277,28.4 174.683333,28.4 C179.246471,28.4 183.73574,28.6924313 188.155321,29.2014125 C175.050819,17.3413063 158.942321,8.479175 141.029381,3.78296875 C140.992679,3.77320625 140.955977,3.7638875 140.919275,3.75456875 C140.120192,3.54600625 139.317856,3.345875 138.511804,3.154175 C138.414706,3.1311 138.317608,3.1089125 138.22051,3.08628125 C137.467885,2.909225 136.712473,2.738825 135.953808,2.5764125 C135.801425,2.54401875 135.648112,2.51295625 135.495729,2.48100625 C134.785846,2.33190625 134.074104,2.18813125 133.35911,2.0519 C133.152835,2.01285 132.945631,1.9764625 132.739356,1.9383 C132.07175,1.8149375 131.403215,1.695125 130.731427,1.5833 C130.47219,1.54025625 130.211094,1.50120625 129.951392,1.4599375 C129.325598,1.36009375 128.698875,1.262025 128.069829,1.1723875 C127.759023,1.1280125 127.446358,1.08940625 127.134623,1.04725 C126.549712,0.96870625 125.965267,0.8901625 125.377569,0.82049375 C125.0138,0.77745 124.648173,0.7410625 124.283475,0.701125 C123.741306,0.6416625 123.199602,0.58086875 122.654646,0.52939375 C122.236056,0.48945625 121.815144,0.45795 121.395625,0.42245 C120.898985,0.3807375 120.40281,0.33591875 119.904312,0.30041875 C119.423004,0.26625 118.938444,0.24095625 118.455277,0.21255625 C118.012529,0.186375 117.57071,0.1562 117.126569,0.1349 C116.548627,0.1073875 115.967898,0.09096875 115.387633,0.0718875 C115.033156,0.06035 114.680073,0.04304375 114.324667,0.0346125 C113.385744,0.01198125 112.444498,0 111.5,0 C49.9204083,0 0,47.681825 0,106.5 C0,107.386169 0.01254375,108.269675 0.0353083333,109.150519 C0.0427416667,109.447388 0.0580729167,109.742481 0.0678291667,110.038463 C0.08780625,110.62155 0.107783333,111.204638 0.137516667,111.785506 C0.155635417,112.138288 0.180722917,112.48885 0.202558333,112.840744 C0.234614583,113.362594 0.26620625,113.884 0.306160417,114.403631 C0.334964583,114.7786 0.369808333,115.151794 0.40279375,115.525875 C0.446,116.019325 0.489670833,116.512331 0.540310417,117.003563 C0.5798,117.390513 0.6244,117.775688 0.668535417,118.161306 C0.722891667,118.636563 0.778177083,119.111375 0.8390375,119.584856 C0.889677083,119.97935 0.944033333,120.372513 0.99931875,120.765231 C1.06389583,121.2254 1.13033125,121.684681 1.20094792,122.143075 C1.2627375,122.543338 1.32685,122.942713 1.39328542,123.3412 C1.46761875,123.788944 1.54520417,124.235356 1.62557708,124.681325 C1.69851667,125.085581 1.77238542,125.489394 1.85043542,125.891875 C1.93406042,126.32675 2.02233125,126.760294 2.11153125,127.19295 C2.19608542,127.602531 2.28063958,128.011669 2.37030417,128.419475 C2.46229167,128.84015 2.55985417,129.259494 2.65695208,129.678394 C2.75358542,130.0933 2.84928958,130.50865 2.95056875,130.921781 C3.049525,131.324263 3.15452083,131.724969 3.25812292,132.125675 C3.36822917,132.551675 3.47694167,132.979006 3.59262292,133.403231 C3.6934375,133.772875 3.80075625,134.139413 3.9052875,134.507725 C4.03397708,134.959019 4.15941458,135.4112 4.29414375,135.859831 C4.38009167,136.146494 4.47254375,136.430494 4.56081458,136.715825 C5.16941875,138.682969 5.83284375,140.627038 6.55527083,142.544925 C6.595225,142.650981 6.63285625,142.758369 6.673275,142.864425 C6.89766875,143.454169 7.13135417,144.039919 7.36643333,144.624781 C7.44076667,144.810269 7.51277708,144.997088 7.58803958,145.181688 C7.81940208,145.747913 8.05912708,146.310588 8.30024583,146.871931 C8.38526458,147.0694 8.46796042,147.2682 8.55390833,147.464781 C8.79920833,148.026569 9.05194167,148.584363 9.30699792,149.140825 C9.393875,149.330306 9.47935833,149.520675 9.56762917,149.709713 C9.83104792,150.27505 10.1005062,150.837725 10.3736812,151.397738 C10.4577708,151.569913 10.5409312,151.742088 10.62595,151.913819 C10.9112042,152.49025 11.2020333,153.064019 11.4975083,153.634681 C11.5727708,153.780231 11.6480333,153.925338 11.724225,154.07 C12.036425,154.665513 12.3532708,155.257919 12.6766208,155.846775 C12.7351583,155.953719 12.794625,156.060219 12.8536271,156.167163 C13.1992771,156.791519 13.5495729,157.413213 13.9077667,158.030025 C13.9388937,158.083275 13.9700208,158.136081 14.0011479,158.189331 C30.9686604,187.310869 61.8304667,208.031331 98.0280125,212.198588 Z M143.593417,25.0674375 C148.23321,22.0672438 155.12484,24.0525813 159.432456,29.417075 C152.620271,30.3076813 146.008321,31.784925 139.646317,33.7955563 C139.445152,30.1940813 140.754812,26.9027875 143.593417,25.0674375 Z M93.9945,15.2295 C95.3701313,13.9155563 97.8598333,13.9155563 99.2717021,15.2295 C99.9397729,15.904 100.349535,16.8261125 100.349535,17.75 C100.349535,18.6721125 99.9393083,19.596 99.2717021,20.2705 C98.5641417,20.9081688 97.5987375,21.3 96.6333333,21.3 C95.6679292,21.3 94.6988083,20.9081688 93.9945,20.2705 C93.3231771,19.596 92.9166667,18.7085 92.9166667,17.75 C92.9166667,16.7915 93.3231771,15.8676125 93.9945,15.2295 Z M89.2195125,52.5191438 C89.6046521,45.2580625 95.6999854,39.4365063 103.301962,39.0681938 C103.55516,39.0562125 103.810217,39.05 104.066667,39.05 C108.814244,39.05 112.992706,41.2146125 115.7147,44.5236563 C107.29134,49.5486813 99.6215333,55.612525 92.9027292,62.5368 C90.6262708,60.0420375 89.2,56.819525 89.2,53.25 C89.2,53.00505 89.2065042,52.7614313 89.2195125,52.5191438 Z M48.4100479,44.4641938 C52.7789896,40.2911688 59.4202083,39.868275 63.2428,43.5198938 C67.0658562,47.1715125 66.6231083,53.514475 62.2541667,57.6875 C57.885225,61.860525 51.2440063,62.2834187 47.4214146,58.6318 C43.5988229,54.9801812 44.0411063,48.6372188 48.4100479,44.4641938 Z M55.75,127.755625 C55.75,128.677738 55.3397729,129.601625 54.6721667,130.276125 C53.9646063,130.914238 52.9987375,131.305625 52.0333333,131.305625 C51.0679292,131.305625 50.0988083,130.913794 49.3945,130.276125 C48.7231771,129.601625 48.3166667,128.677738 48.3166667,127.755625 C48.3166667,126.831738 48.7231771,125.909625 49.3945,125.235125 C50.7701313,123.921181 53.2960708,123.921181 54.6717021,125.235125 C55.3397729,125.909625 55.75,126.831738 55.75,127.755625 Z M22.3,99.4 C22.3,91.5576063 28.1240167,85.2 35.3083333,85.2 C42.49265,85.2 48.3166667,91.5576063 48.3166667,99.4 C48.3166667,107.242394 42.49265,113.6 35.3083333,113.6 C28.1240167,113.6 22.3,107.242394 22.3,99.4 Z M35.8133354,144.257356 C40.167875,140.098088 48.4040083,141.222106 54.2099062,146.76765 C60.0158042,152.313194 61.1925937,160.179994 56.8380542,164.339263 C52.4835146,168.498531 44.2473813,167.374513 38.4414833,161.828969 C32.6355854,156.283425 31.4587958,148.416181 35.8133354,144.257356 Z" id="Shape" fill="#FFD586"></path>
                <ellipse id="Oval" fill="#E7B27E" cx="35.3083333" cy="99.4" rx="13.0083333" ry="14.2"></ellipse>
                <ellipse id="Oval" fill="#E7B27E" transform="translate(46.326020, 154.296640) rotate(45.000000) translate(-46.326020, -154.296640) " cx="46.32602" cy="154.29664" rx="14.8665241" ry="10.6498979"></ellipse>
                <ellipse id="Oval" fill="#FFD586" transform="translate(172.658353, 151.036170) rotate(-135.000000) translate(-172.658353, -151.036170) " cx="172.658353" cy="151.03617" rx="8.02513554" ry="10.220352"></ellipse>
                <path d="M89.2,88.75 C90.1654042,88.75 91.1308083,88.3581688 91.8388333,87.7205 C92.5069042,87.046 92.9166667,86.1221125 92.9166667,85.2 C92.9166667,84.2761125 92.5064396,83.354 91.8388333,82.6795 C90.4269646,81.3655563 87.9735,81.3655563 86.5616312,82.6795 C85.8903083,83.354 85.4837979,84.2415 85.4837979,85.2 C85.4837979,86.1221125 85.8903083,87.046 86.5616312,87.7205 C87.265475,88.3581688 88.2345958,88.75 89.2,88.75 Z" id="Shape" fill="#FFD586"></path>
                <path d="M49.3945,125.235569 C48.7231771,125.910069 48.3166667,126.832181 48.3166667,127.756069 C48.3166667,128.678181 48.7231771,129.602069 49.3945,130.276569 C50.0988083,130.914681 51.0679292,131.306069 52.0333333,131.306069 C52.9987375,131.306069 53.9641417,130.914238 54.6721667,130.276569 C55.3402375,129.602069 55.75,128.678181 55.75,127.756069 C55.75,126.832181 55.3397729,125.910069 54.6721667,125.235569 C53.2965354,123.921625 50.7701313,123.921625 49.3945,125.235569 Z" id="Shape" fill="#E7B27E"></path>
                <path d="M146.027833,125.2795 C145.35651,125.954 144.95,126.876113 144.95,127.8 C144.95,128.722113 145.35651,129.646 146.027833,130.3205 C146.732142,130.958613 147.701262,131.35 148.666667,131.35 C149.632071,131.35 150.597475,130.958169 151.3055,130.3205 C151.973571,129.646 152.383333,128.722113 152.383333,127.8 C152.383333,126.876113 151.973106,125.954 151.3055,125.2795 C149.893631,123.965556 147.439702,123.965556 146.027833,125.2795 Z" id="Shape" fill="#FFD586"></path>
                <path d="M178.4,71 C179.365404,71 180.330808,70.6081688 181.038833,69.9705 C181.706904,69.296 182.116667,68.3721125 182.116667,67.45 C182.116667,66.5261125 181.70644,65.604 181.038833,64.9295 C179.626965,63.6155563 177.097308,63.6501688 175.797869,64.9295 C175.090308,65.604 174.683798,66.4915 174.683798,67.45 C174.683798,68.3721125 175.090308,69.296 175.761631,69.9705 C176.465475,70.6081688 177.394642,71 178.4,71 Z" id="Shape" fill="#FFD586"></path>
                <path d="M96.6333333,21.3 C97.5987375,21.3 98.5641417,20.9081687 99.2721667,20.2705 C99.9402375,19.596 100.35,18.6721125 100.35,17.75 C100.35,16.8261125 99.9397729,15.904 99.2721667,15.2295 C97.8602979,13.9155562 95.3705958,13.9155562 93.9949646,15.2295 C93.3231771,15.8676125 92.9166667,16.7915 92.9166667,17.75 C92.9166667,18.7085 93.3231771,19.596 93.9945,20.2705 C94.6988083,20.9081687 95.6679292,21.3 96.6333333,21.3 Z" id="Shape" fill="#E7B27E"></path>
                <path d="M79.1278333,167.8795 C78.4565104,168.554 78.05,169.476113 78.05,170.4 C78.05,171.322113 78.4565104,172.246 79.1278333,172.9205 C79.8321417,173.558613 80.8012625,173.95 81.7666667,173.95 C82.7320708,173.95 83.697475,173.558169 84.4055,172.9205 C85.0735708,172.246 85.4833333,171.322113 85.4833333,170.4 C85.4833333,169.476113 85.0731063,168.554 84.4055,167.8795 C82.9936313,166.565556 80.5397021,166.565556 79.1278333,167.8795 Z" id="Shape" fill="#FFD586"></path>
                <ellipse id="Oval" fill="#FFD586" cx="105.925" cy="133.125" rx="20.4416667" ry="19.525"></ellipse>
                <ellipse id="Oval" fill="#FFD586" cx="144.95" cy="85.2" rx="11.15" ry="10.65"></ellipse>
                <ellipse id="Oval" fill="#FFD586" transform="translate(121.262077, 182.708227) rotate(-104.992312) translate(-121.262077, -182.708227) " cx="121.262077" cy="182.708227" rx="13.0595063" ry="16.3501928"></ellipse>
                <ellipse id="Oval" fill="#FFD586" transform="translate(182.677304, 105.583866) rotate(-80.636579) translate(-182.677304, -105.583866) " cx="182.677304" cy="105.583866" rx="13.9861536" ry="10.0192289"></ellipse>
                <path d="M92.9027292,62.5368 C99.6210687,55.612525 107.290875,49.5486813 115.7147,44.5236563 C112.992706,41.2146125 108.814244,39.05 104.066667,39.05 C103.810217,39.05 103.55516,39.0562125 103.301498,39.0686375 C95.6995208,39.4365063 89.6046521,45.2585063 89.2190479,52.5195875 C89.2065042,52.7614313 89.2,53.00505 89.2,53.25 C89.2,56.8190813 90.6262708,60.0420375 92.9027292,62.5368 Z" id="Shape" fill="#E7B27E"></path>
                <ellipse id="Oval" fill="#E7B27E" transform="translate(55.332061, 51.074835) rotate(45.000000) translate(-55.332061, -51.074835) " cx="55.3320608" cy="51.0748351" rx="9.78914154" ry="10.6858413"></ellipse>
                <path d="M139.646317,33.7955563 C146.008321,31.784925 152.620271,30.3076813 159.432456,29.417075 C155.12484,24.0525813 148.23321,22.0672438 143.593417,25.0674375 C140.754813,26.9027875 139.445152,30.1940813 139.646317,33.7955563 Z" id="Shape" fill="#E7B27E"></path>
            </g>
        </g>
    </g>
</svg>